STARTFONT 2.1
FONT -FontForge-Satisfy-Book-R-Normal--16-160-72-72-P-69-ISO10646-1
SIZE 16 72 72
FONTBOUNDINGBOX 18 23 -3 -8
COMMENT "Generated by fontforge, http://fontforge.sourceforge.net"
COMMENT "Copyright (c) 2011 by Font Diner, Inc. All rights reserved."
STARTPROPERTIES 39
FOUNDRY "FontForge"
FAMILY_NAME "Satisfy"
WEIGHT_NAME "Book"
SLANT "R"
SETWIDTH_NAME "Normal"
ADD_STYLE_NAME ""
PIXEL_SIZE 16
POINT_SIZE 160
RESOLUTION_X 72
RESOLUTION_Y 72
SPACING "P"
AVERAGE_WIDTH 69
CHARSET_REGISTRY "ISO10646"
CHARSET_ENCODING "1"
FONTNAME_REGISTRY ""
CHARSET_COLLECTIONS "ISO10646-1"
FONT_NAME "Satisfy-Regular"
FACE_NAME "Satisfy Regular"
COPYRIGHT "Copyright (c) 2011 by Font Diner, Inc. All rights reserved."
FONT_VERSION "1.001"
FONT_ASCENT 13
FONT_DESCENT 3
UNDERLINE_POSITION -2
UNDERLINE_THICKNESS 1
X_HEIGHT 6
CAP_HEIGHT 11
RAW_ASCENT 799
RAW_DESCENT 200
NORM_SPACE 4
RELATIVE_WEIGHT 40
RELATIVE_SETWIDTH 50
SUPERSCRIPT_X 0
SUPERSCRIPT_Y 7
SUPERSCRIPT_SIZE 10
SUBSCRIPT_X 0
SUBSCRIPT_Y 2
SUBSCRIPT_SIZE 10
AVG_LOWERCASE_WIDTH 65
AVG_UPPERCASE_WIDTH 90
ENDPROPERTIES
CHARS 227
STARTCHAR space
ENCODING 32
SWIDTH 280 0
DWIDTH 4 0
BBX 1 1 0 0
BITMAP
00
ENDCHAR
STARTCHAR exclam
ENCODING 33
SWIDTH 249 0
DWIDTH 4 0
BBX 4 12 0 0
BITMAP
10
30
30
20
20
60
60
40
40
40
00
C0
ENDCHAR
STARTCHAR quotedbl
ENCODING 34
SWIDTH 249 0
DWIDTH 4 0
BBX 4 5 1 7
BITMAP
50
D0
B0
A0
A0
ENDCHAR
STARTCHAR numbersign
ENCODING 35
SWIDTH 417 0
DWIDTH 7 0
BBX 7 8 0 2
BITMAP
16
14
7E
A8
28
FE
50
D0
ENDCHAR
STARTCHAR dollar
ENCODING 36
SWIDTH 292 0
DWIDTH 5 0
BBX 6 12 -1 0
BITMAP
08
08
34
24
24
20
10
10
48
D8
70
20
ENDCHAR
STARTCHAR percent
ENCODING 37
SWIDTH 574 0
DWIDTH 9 0
BBX 9 12 0 0
BITMAP
1080
6900
4900
4A00
5400
6C00
0800
1700
3480
2900
4900
C700
ENDCHAR
STARTCHAR ampersand
ENCODING 38
SWIDTH 460 0
DWIDTH 7 0
BBX 8 13 -1 -1
BITMAP
06
09
0A
0C
0C
18
38
68
48
C9
CE
7C
06
ENDCHAR
STARTCHAR quotesingle
ENCODING 39
SWIDTH 113 0
DWIDTH 2 0
BBX 2 5 1 7
BITMAP
40
C0
80
80
80
ENDCHAR
STARTCHAR parenleft
ENCODING 40
SWIDTH 234 0
DWIDTH 4 0
BBX 5 15 0 -2
BITMAP
08
10
10
20
20
40
40
40
40
C0
C0
80
80
40
40
ENDCHAR
STARTCHAR parenright
ENCODING 41
SWIDTH 204 0
DWIDTH 3 0
BBX 5 15 -2 -2
BITMAP
08
08
08
08
08
08
08
18
10
10
30
20
20
40
80
ENDCHAR
STARTCHAR asterisk
ENCODING 42
SWIDTH 327 0
DWIDTH 5 0
BBX 5 6 1 6
BITMAP
30
A0
F8
60
D0
50
ENDCHAR
STARTCHAR plus
ENCODING 43
SWIDTH 350 0
DWIDTH 6 0
BBX 6 5 0 3
BITMAP
10
24
F8
20
20
ENDCHAR
STARTCHAR comma
ENCODING 44
SWIDTH 200 0
DWIDTH 3 0
BBX 1 3 0 -2
BITMAP
80
80
80
ENDCHAR
STARTCHAR hyphen
ENCODING 45
SWIDTH 353 0
DWIDTH 6 0
BBX 5 2 0 4
BITMAP
78
C0
ENDCHAR
STARTCHAR period
ENCODING 46
SWIDTH 213 0
DWIDTH 3 0
BBX 2 1 0 0
BITMAP
C0
ENDCHAR
STARTCHAR slash
ENCODING 47
SWIDTH 262 0
DWIDTH 4 0
BBX 8 12 -2 0
BITMAP
01
03
02
04
04
08
18
10
30
20
60
C0
ENDCHAR
STARTCHAR zero
ENCODING 48
SWIDTH 489 0
DWIDTH 8 0
BBX 7 12 0 0
BITMAP
0C
12
32
22
62
42
42
46
C4
44
48
78
ENDCHAR
STARTCHAR one
ENCODING 49
SWIDTH 272 0
DWIDTH 4 0
BBX 4 12 0 0
BITMAP
10
30
30
20
20
20
20
60
40
40
C0
C0
ENDCHAR
STARTCHAR two
ENCODING 50
SWIDTH 448 0
DWIDTH 7 0
BBX 7 12 0 0
BITMAP
0C
36
66
66
04
0C
08
10
20
40
90
FC
ENDCHAR
STARTCHAR three
ENCODING 51
SWIDTH 462 0
DWIDTH 7 0
BBX 7 12 0 0
BITMAP
1C
32
62
66
04
08
38
04
04
04
C8
F8
ENDCHAR
STARTCHAR four
ENCODING 52
SWIDTH 452 0
DWIDTH 7 0
BBX 7 12 0 0
BITMAP
02
0E
1C
14
24
44
BC
CC
08
08
18
18
ENDCHAR
STARTCHAR five
ENCODING 53
SWIDTH 444 0
DWIDTH 7 0
BBX 7 12 0 0
BITMAP
0E
3E
22
20
40
5C
64
04
04
88
C8
F0
ENDCHAR
STARTCHAR six
ENCODING 54
SWIDTH 477 0
DWIDTH 8 0
BBX 6 12 1 0
BITMAP
08
34
6C
40
D0
A8
CC
CC
88
88
98
F0
ENDCHAR
STARTCHAR seven
ENCODING 55
SWIDTH 406 0
DWIDTH 7 0
BBX 6 12 1 0
BITMAP
3C
FC
8C
08
10
30
20
60
40
C0
C0
C0
ENDCHAR
STARTCHAR eight
ENCODING 56
SWIDTH 444 0
DWIDTH 7 0
BBX 7 12 0 0
BITMAP
0C
12
22
26
3C
38
38
48
CC
8C
88
F8
ENDCHAR
STARTCHAR nine
ENCODING 57
SWIDTH 462 0
DWIDTH 7 0
BBX 7 12 0 0
BITMAP
0C
32
22
62
46
46
4A
7C
04
48
D8
F0
ENDCHAR
STARTCHAR colon
ENCODING 58
SWIDTH 226 0
DWIDTH 4 0
BBX 3 4 0 0
BITMAP
E0
00
00
C0
ENDCHAR
STARTCHAR semicolon
ENCODING 59
SWIDTH 212 0
DWIDTH 3 0
BBX 2 6 0 -2
BITMAP
C0
00
00
80
80
80
ENDCHAR
STARTCHAR less
ENCODING 60
SWIDTH 271 0
DWIDTH 4 0
BBX 5 6 0 2
BITMAP
38
60
C0
C0
40
60
ENDCHAR
STARTCHAR equal
ENCODING 61
SWIDTH 374 0
DWIDTH 6 0
BBX 6 3 0 4
BITMAP
7C
00
F8
ENDCHAR
STARTCHAR greater
ENCODING 62
SWIDTH 250 0
DWIDTH 4 0
BBX 5 6 -1 2
BITMAP
30
10
18
18
20
C0
ENDCHAR
STARTCHAR question
ENCODING 63
SWIDTH 413 0
DWIDTH 7 0
BBX 7 12 0 0
BITMAP
1C
62
42
62
06
0C
38
60
40
40
00
C0
ENDCHAR
STARTCHAR at
ENCODING 64
SWIDTH 648 0
DWIDTH 10 0
BBX 10 10 0 0
BITMAP
1F00
2080
4F40
9340
B640
A240
A640
BC80
C500
7600
ENDCHAR
STARTCHAR A
ENCODING 65
SWIDTH 552 0
DWIDTH 9 0
BBX 10 16 -2 -4
BITMAP
00C0
0340
0240
0440
0CC0
0880
0880
1880
1F80
7FC0
3180
3100
2100
6100
C180
0100
ENDCHAR
STARTCHAR B
ENCODING 66
SWIDTH 607 0
DWIDTH 10 0
BBX 9 15 0 -3
BITMAP
0F00
3980
7080
1080
3180
3100
2200
3E00
6300
4100
4100
4300
C300
C600
F800
ENDCHAR
STARTCHAR C
ENCODING 67
SWIDTH 548 0
DWIDTH 9 0
BBX 9 15 0 -3
BITMAP
0700
1980
1180
3180
6180
6300
4000
C000
C000
C000
C000
C200
C200
6400
3800
ENDCHAR
STARTCHAR D
ENCODING 68
SWIDTH 632 0
DWIDTH 10 0
BBX 10 15 0 -3
BITMAP
1C00
3300
4180
1080
3080
30C0
30C0
2080
2180
6180
6100
4300
4600
CC00
7000
ENDCHAR
STARTCHAR E
ENCODING 69
SWIDTH 523 0
DWIDTH 8 0
BBX 9 15 0 -3
BITMAP
0700
1900
3180
6100
6300
6000
2000
1C00
6000
C000
8000
8200
8200
CC00
7800
ENDCHAR
STARTCHAR F
ENCODING 70
SWIDTH 585 0
DWIDTH 9 0
BBX 8 15 1 -3
BITMAP
1E
E1
81
E3
42
06
04
7F
08
08
18
10
30
30
30
ENDCHAR
STARTCHAR G
ENCODING 71
SWIDTH 612 0
DWIDTH 10 0
BBX 9 15 0 -3
BITMAP
0700
0D80
1880
3180
3180
6300
6000
4000
CF80
C100
C100
C200
4200
4400
3800
ENDCHAR
STARTCHAR H
ENCODING 72
SWIDTH 649 0
DWIDTH 10 0
BBX 11 15 0 -3
BITMAP
0820
1040
10C0
30C0
3080
2080
2180
3FC0
6980
4500
4300
4200
C200
C200
C600
ENDCHAR
STARTCHAR I
ENCODING 73
SWIDTH 537 0
DWIDTH 9 0
BBX 9 15 -1 -3
BITMAP
0100
0680
0480
0D80
0D80
0900
0900
0700
0300
3E80
C200
8600
C400
C800
3000
ENDCHAR
STARTCHAR J
ENCODING 74
SWIDTH 500 0
DWIDTH 8 0
BBX 10 15 -1 -3
BITMAP
07C0
0DC0
0100
0100
0300
0300
0200
0200
7600
6600
C400
8400
8C00
8800
7000
ENDCHAR
STARTCHAR K
ENCODING 75
SWIDTH 497 0
DWIDTH 8 0
BBX 10 16 -1 -4
BITMAP
0840
08C0
1880
1180
1100
3300
2600
2800
7E00
6600
6200
4600
4400
C400
C400
0780
ENDCHAR
STARTCHAR L
ENCODING 76
SWIDTH 492 0
DWIDTH 8 0
BBX 11 15 -2 -3
BITMAP
00C0
01E0
0140
0340
0280
2700
1E00
0600
0400
0400
0C00
0800
7800
DC80
6780
ENDCHAR
STARTCHAR M
ENCODING 77
SWIDTH 733 0
DWIDTH 12 0
BBX 14 15 -2 -3
BITMAP
0108
031C
0718
0538
0528
0D68
0F58
0B50
2B90
5B90
5BB0
D330
D120
7030
6038
ENDCHAR
STARTCHAR N
ENCODING 78
SWIDTH 541 0
DWIDTH 9 0
BBX 11 15 -1 -3
BITMAP
0860
18E0
18A0
19A0
2BC0
2900
2900
2900
6900
4B00
4A00
4E00
C600
C600
4400
ENDCHAR
STARTCHAR O
ENCODING 79
SWIDTH 567 0
DWIDTH 9 0
BBX 8 15 0 -3
BITMAP
0E
1B
31
21
61
41
41
C1
C3
C3
C2
C2
C4
4C
78
ENDCHAR
STARTCHAR P
ENCODING 80
SWIDTH 552 0
DWIDTH 9 0
BBX 10 15 -1 -3
BITMAP
0780
18C0
28C0
0840
10C0
10C0
1180
1300
3E00
2000
2000
2000
6000
6000
C000
ENDCHAR
STARTCHAR Q
ENCODING 81
SWIDTH 583 0
DWIDTH 9 0
BBX 9 15 0 -3
BITMAP
0600
1900
3100
2180
6180
4180
4180
C100
C100
4300
6200
0600
7C00
5C00
7380
ENDCHAR
STARTCHAR R
ENCODING 82
SWIDTH 560 0
DWIDTH 9 0
BBX 10 16 -1 -4
BITMAP
0780
18C0
2840
0840
1840
10C0
1080
3300
3E00
3400
2200
2200
6200
6200
C340
0380
ENDCHAR
STARTCHAR S
ENCODING 83
SWIDTH 474 0
DWIDTH 8 0
BBX 9 15 -1 -3
BITMAP
0700
1980
1080
3180
3100
3000
1800
0C00
0400
0600
0600
C600
C400
4C00
7800
ENDCHAR
STARTCHAR T
ENCODING 84
SWIDTH 423 0
DWIDTH 7 0
BBX 9 15 0 -3
BITMAP
1E80
FF00
0800
0800
1800
1000
1000
1000
3000
2000
2000
2000
6000
6000
6000
ENDCHAR
STARTCHAR U
ENCODING 85
SWIDTH 574 0
DWIDTH 9 0
BBX 10 15 0 -3
BITMAP
0840
3080
3180
3180
2180
6100
6300
4300
4200
C200
C600
C600
C600
CA00
7200
ENDCHAR
STARTCHAR V
ENCODING 86
SWIDTH 503 0
DWIDTH 8 0
BBX 8 15 1 -3
BITMAP
61
43
C2
C6
84
84
8C
88
88
98
90
90
B0
E0
40
ENDCHAR
STARTCHAR W
ENCODING 87
SWIDTH 817 0
DWIDTH 13 0
BBX 13 15 0 -3
BITMAP
1818
3118
3318
2318
6318
4210
4210
4210
4630
C620
C620
CA40
4A40
5280
6300
ENDCHAR
STARTCHAR X
ENCODING 88
SWIDTH 579 0
DWIDTH 9 0
BBX 12 15 -1 -3
BITMAP
1820
2870
2CC0
2480
3D80
0700
0600
0400
0C00
0C00
1C00
3600
2200
6240
C180
ENDCHAR
STARTCHAR Y
ENCODING 89
SWIDTH 532 0
DWIDTH 9 0
BBX 9 15 0 -3
BITMAP
1080
3180
2180
6100
6100
4300
4200
4600
4600
4A00
7400
0400
4C00
F800
7000
ENDCHAR
STARTCHAR Z
ENCODING 90
SWIDTH 455 0
DWIDTH 7 0
BBX 9 15 -1 -3
BITMAP
0F00
3F80
0180
0100
0300
0600
0C00
0800
1800
3000
6000
4000
C000
FE00
CC00
ENDCHAR
STARTCHAR bracketleft
ENCODING 91
SWIDTH 202 0
DWIDTH 3 0
BBX 6 15 -1 -2
BITMAP
0C
10
10
10
30
20
20
20
60
40
40
40
40
C0
E0
ENDCHAR
STARTCHAR backslash
ENCODING 92
SWIDTH 273 0
DWIDTH 4 0
BBX 3 12 1 0
BITMAP
80
80
80
80
80
80
C0
40
40
40
40
60
ENDCHAR
STARTCHAR bracketright
ENCODING 93
SWIDTH 216 0
DWIDTH 3 0
BBX 6 15 -2 -2
BITMAP
0C
04
04
08
08
08
08
10
10
10
10
20
20
20
C0
ENDCHAR
STARTCHAR asciicircum
ENCODING 94
SWIDTH 287 0
DWIDTH 5 0
BBX 5 6 0 6
BITMAP
10
38
28
48
48
88
ENDCHAR
STARTCHAR underscore
ENCODING 95
SWIDTH 439 0
DWIDTH 7 0
BBX 8 1 -2 0
BITMAP
FF
ENDCHAR
STARTCHAR grave
ENCODING 96
SWIDTH 567 0
DWIDTH 9 0
BBX 3 2 4 9
BITMAP
C0
60
ENDCHAR
STARTCHAR a
ENCODING 97
SWIDTH 435 0
DWIDTH 7 0
BBX 8 7 0 0
BITMAP
10
38
48
C9
99
92
EC
ENDCHAR
STARTCHAR b
ENCODING 98
SWIDTH 415 0
DWIDTH 7 0
BBX 8 11 0 0
BITMAP
30
30
20
60
60
48
DF
88
88
90
60
ENDCHAR
STARTCHAR c
ENCODING 99
SWIDTH 363 0
DWIDTH 6 0
BBX 7 7 0 0
BITMAP
10
68
D0
82
84
88
F0
ENDCHAR
STARTCHAR d
ENCODING 100
SWIDTH 483 0
DWIDTH 8 0
BBX 9 11 0 0
BITMAP
0300
0300
0600
0600
0600
7400
4C00
8880
8900
9A00
EC00
ENDCHAR
STARTCHAR e
ENCODING 101
SWIDTH 372 0
DWIDTH 6 0
BBX 7 7 0 0
BITMAP
10
78
50
A2
C2
84
F8
ENDCHAR
STARTCHAR f
ENCODING 102
SWIDTH 325 0
DWIDTH 5 0
BBX 9 19 -2 -8
BITMAP
0C00
0C00
0C00
0800
0800
0800
1780
1800
3000
3000
2800
2C00
2400
4400
4C00
4800
5800
F000
4000
ENDCHAR
STARTCHAR g
ENCODING 103
SWIDTH 459 0
DWIDTH 7 0
BBX 9 14 0 -8
BITMAP
7400
4C00
8880
8900
9A00
EC00
1800
3000
5000
9000
B000
A000
E000
4000
ENDCHAR
STARTCHAR h
ENCODING 104
SWIDTH 465 0
DWIDTH 7 0
BBX 9 11 0 0
BITMAP
3000
3000
2000
2000
6000
5C00
6C00
4880
C900
9A00
9C00
ENDCHAR
STARTCHAR i
ENCODING 105
SWIDTH 274 0
DWIDTH 4 0
BBX 6 10 0 0
BITMAP
20
20
00
00
60
40
44
C8
90
60
ENDCHAR
STARTCHAR j
ENCODING 106
SWIDTH 267 0
DWIDTH 4 0
BBX 9 17 -3 -7
BITMAP
0600
0000
0000
0000
0C00
0800
0880
1900
1200
1C00
1000
3000
7000
A000
A000
A000
C000
ENDCHAR
STARTCHAR k
ENCODING 107
SWIDTH 440 0
DWIDTH 7 0
BBX 8 11 0 0
BITMAP
30
20
20
20
40
5C
68
51
B9
92
9C
ENDCHAR
STARTCHAR l
ENCODING 108
SWIDTH 218 0
DWIDTH 4 0
BBX 4 11 0 0
BITMAP
30
20
20
60
60
40
40
40
C0
80
80
ENDCHAR
STARTCHAR m
ENCODING 109
SWIDTH 717 0
DWIDTH 11 0
BBX 13 6 0 0
BITMAP
5D80
6680
4C88
C890
C9A0
89C0
ENDCHAR
STARTCHAR n
ENCODING 110
SWIDTH 461 0
DWIDTH 7 0
BBX 9 6 0 0
BITMAP
7800
6C00
4880
C900
8A00
9C00
ENDCHAR
STARTCHAR o
ENCODING 111
SWIDTH 393 0
DWIDTH 6 0
BBX 8 6 0 0
BITMAP
70
C9
CE
B8
90
F0
ENDCHAR
STARTCHAR p
ENCODING 112
SWIDTH 451 0
DWIDTH 7 0
BBX 10 13 -2 -7
BITMAP
1600
1900
1340
3240
3E80
3F00
2000
6000
4000
4000
4000
C000
4000
ENDCHAR
STARTCHAR q
ENCODING 113
SWIDTH 462 0
DWIDTH 7 0
BBX 8 13 0 -7
BITMAP
34
4C
CC
88
89
FA
1C
18
10
30
30
30
30
ENDCHAR
STARTCHAR r
ENCODING 114
SWIDTH 406 0
DWIDTH 7 0
BBX 9 8 -1 -1
BITMAP
3000
3000
3C00
4C80
4900
9200
9C00
0800
ENDCHAR
STARTCHAR s
ENCODING 115
SWIDTH 351 0
DWIDTH 6 0
BBX 4 8 0 -1
BITMAP
30
60
60
90
10
50
F0
40
ENDCHAR
STARTCHAR t
ENCODING 116
SWIDTH 301 0
DWIDTH 5 0
BBX 8 11 -1 0
BITMAP
18
18
FF
10
30
30
20
22
24
44
38
ENDCHAR
STARTCHAR u
ENCODING 117
SWIDTH 468 0
DWIDTH 8 0
BBX 9 6 0 0
BITMAP
4C00
4C00
C880
8900
9A00
FC00
ENDCHAR
STARTCHAR v
ENCODING 118
SWIDTH 427 0
DWIDTH 7 0
BBX 8 6 0 0
BITMAP
CC
CD
8F
90
D0
60
ENDCHAR
STARTCHAR w
ENCODING 119
SWIDTH 646 0
DWIDTH 10 0
BBX 12 6 0 0
BITMAP
4D80
C990
C9E0
8900
9B00
EE00
ENDCHAR
STARTCHAR x
ENCODING 120
SWIDTH 399 0
DWIDTH 6 0
BBX 8 7 -1 0
BITMAP
60
26
2C
18
31
72
CC
ENDCHAR
STARTCHAR y
ENCODING 121
SWIDTH 406 0
DWIDTH 7 0
BBX 6 13 0 -7
BITMAP
CC
CC
C8
98
98
F0
10
10
10
30
20
20
20
ENDCHAR
STARTCHAR z
ENCODING 122
SWIDTH 448 0
DWIDTH 7 0
BBX 9 13 -1 -7
BITMAP
1E00
0200
0400
0880
1D00
1200
0C00
3400
6400
4800
4800
D000
6000
ENDCHAR
STARTCHAR braceleft
ENCODING 123
SWIDTH 243 0
DWIDTH 4 0
BBX 5 15 0 -2
BITMAP
18
30
20
20
20
20
40
C0
40
40
C0
80
80
C0
40
ENDCHAR
STARTCHAR bar
ENCODING 124
SWIDTH 253 0
DWIDTH 4 0
BBX 4 12 0 0
BITMAP
10
30
20
20
20
20
40
40
40
40
C0
80
ENDCHAR
STARTCHAR braceright
ENCODING 125
SWIDTH 243 0
DWIDTH 4 0
BBX 6 15 -2 -2
BITMAP
08
0C
04
04
08
08
08
08
10
10
10
10
30
60
C0
ENDCHAR
STARTCHAR asciitilde
ENCODING 126
SWIDTH 329 0
DWIDTH 5 0
BBX 6 2 0 5
BITMAP
04
F8
ENDCHAR
STARTCHAR uni00A0
ENCODING 160
SWIDTH 280 0
DWIDTH 4 0
BBX 1 1 0 0
BITMAP
00
ENDCHAR
STARTCHAR exclamdown
ENCODING 161
SWIDTH 249 0
DWIDTH 4 0
BBX 4 12 0 0
BITMAP
10
30
00
20
20
20
60
40
40
C0
C0
C0
ENDCHAR
STARTCHAR cent
ENCODING 162
SWIDTH 322 0
DWIDTH 5 0
BBX 5 12 0 0
BITMAP
08
10
38
68
58
88
80
80
88
90
60
40
ENDCHAR
STARTCHAR sterling
ENCODING 163
SWIDTH 318 0
DWIDTH 5 0
BBX 7 10 -1 1
BITMAP
0C
12
16
2C
20
78
20
40
40
F8
ENDCHAR
STARTCHAR currency
ENCODING 164
SWIDTH 347 0
DWIDTH 6 0
BBX 6 6 0 3
BITMAP
40
7C
48
50
70
88
ENDCHAR
STARTCHAR yen
ENCODING 165
SWIDTH 326 0
DWIDTH 5 0
BBX 6 10 0 1
BITMAP
44
44
48
48
30
20
F0
F0
40
40
ENDCHAR
STARTCHAR brokenbar
ENCODING 166
SWIDTH 253 0
DWIDTH 4 0
BBX 4 12 0 0
BITMAP
10
30
20
20
20
00
00
40
40
40
C0
80
ENDCHAR
STARTCHAR section
ENCODING 167
SWIDTH 297 0
DWIDTH 5 0
BBX 6 12 0 0
BITMAP
18
64
48
20
30
50
90
B0
40
20
90
E0
ENDCHAR
STARTCHAR dieresis
ENCODING 168
SWIDTH 567 0
DWIDTH 9 0
BBX 5 2 3 9
BITMAP
40
D8
ENDCHAR
STARTCHAR copyright
ENCODING 169
SWIDTH 456 0
DWIDTH 7 0
BBX 8 8 0 4
BITMAP
1C
22
4D
55
A1
A5
5A
7C
ENDCHAR
STARTCHAR ordfeminine
ENCODING 170
SWIDTH 373 0
DWIDTH 6 0
BBX 8 9 -1 -1
BITMAP
18
28
68
48
49
7E
00
FC
80
ENDCHAR
STARTCHAR guillemotleft
ENCODING 171
SWIDTH 346 0
DWIDTH 6 0
BBX 6 6 -1 0
BITMAP
14
28
50
D0
48
28
ENDCHAR
STARTCHAR logicalnot
ENCODING 172
SWIDTH 512 0
DWIDTH 8 0
BBX 8 3 0 3
BITMAP
FF
01
02
ENDCHAR
STARTCHAR sfthyphen
ENCODING 173
SWIDTH 353 0
DWIDTH 6 0
BBX 5 2 0 4
BITMAP
78
C0
ENDCHAR
STARTCHAR registered
ENCODING 174
SWIDTH 456 0
DWIDTH 7 0
BBX 8 8 0 4
BITMAP
1C
22
5D
55
99
99
66
7C
ENDCHAR
STARTCHAR macron
ENCODING 175
SWIDTH 567 0
DWIDTH 9 0
BBX 3 1 4 9
BITMAP
E0
ENDCHAR
STARTCHAR degree
ENCODING 176
SWIDTH 144 0
DWIDTH 2 0
BBX 2 2 1 9
BITMAP
C0
C0
ENDCHAR
STARTCHAR twosuperior
ENCODING 178
SWIDTH 268 0
DWIDTH 4 0
BBX 5 8 0 4
BITMAP
38
48
68
10
20
40
F0
90
ENDCHAR
STARTCHAR threesuperior
ENCODING 179
SWIDTH 262 0
DWIDTH 4 0
BBX 5 8 0 4
BITMAP
30
48
68
10
30
10
D0
60
ENDCHAR
STARTCHAR acute
ENCODING 180
SWIDTH 567 0
DWIDTH 9 0
BBX 3 2 4 9
BITMAP
20
C0
ENDCHAR
STARTCHAR mu
ENCODING 181
SWIDTH 453 0
DWIDTH 7 0
BBX 9 9 -2 -3
BITMAP
1200
2600
2600
2480
6480
7F00
4000
4000
8000
ENDCHAR
STARTCHAR paragraph
ENCODING 182
SWIDTH 411 0
DWIDTH 7 0
BBX 8 12 0 0
BITMAP
06
3F
7A
7A
FC
74
14
14
18
28
28
78
ENDCHAR
STARTCHAR periodcentered
ENCODING 183
SWIDTH 168 0
DWIDTH 3 0
BBX 2 1 0 5
BITMAP
C0
ENDCHAR
STARTCHAR cedilla
ENCODING 184
SWIDTH 567 0
DWIDTH 9 0
BBX 3 4 4 -2
BITMAP
40
80
60
C0
ENDCHAR
STARTCHAR onesuperior
ENCODING 185
SWIDTH 150 0
DWIDTH 2 0
BBX 3 8 0 4
BITMAP
20
60
20
40
40
40
40
C0
ENDCHAR
STARTCHAR ordmasculine
ENCODING 186
SWIDTH 319 0
DWIDTH 5 0
BBX 7 8 -1 -1
BITMAP
38
6A
7C
48
50
20
F8
80
ENDCHAR
STARTCHAR guillemotright
ENCODING 187
SWIDTH 346 0
DWIDTH 6 0
BBX 6 6 -1 0
BITMAP
50
28
3C
28
58
B0
ENDCHAR
STARTCHAR onequarter
ENCODING 188
SWIDTH 579 0
DWIDTH 9 0
BBX 9 12 0 0
BITMAP
2080
6100
2200
4600
4400
4980
5300
5500
2F00
6900
4300
8200
ENDCHAR
STARTCHAR onehalf
ENCODING 189
SWIDTH 603 0
DWIDTH 10 0
BBX 9 13 0 -1
BITMAP
2080
6100
2200
4600
4400
4B80
5A80
5080
2100
6200
4400
8700
0100
ENDCHAR
STARTCHAR threequarters
ENCODING 190
SWIDTH 669 0
DWIDTH 11 0
BBX 10 12 0 0
BITMAP
3040
4880
6880
1100
3200
16C0
D4C0
6940
1BC0
12C0
2080
6080
ENDCHAR
STARTCHAR questiondown
ENCODING 191
SWIDTH 413 0
DWIDTH 7 0
BBX 8 12 -1 0
BITMAP
03
02
02
06
06
04
38
60
40
C6
C6
7C
ENDCHAR
STARTCHAR Agrave
ENCODING 192
SWIDTH 552 0
DWIDTH 9 0
BBX 10 19 -2 -4
BITMAP
0180
00C0
0000
00C0
0340
0240
0440
0CC0
0880
0880
1880
1F80
7FC0
3180
3100
2100
6100
C180
0100
ENDCHAR
STARTCHAR Aacute
ENCODING 193
SWIDTH 552 0
DWIDTH 9 0
BBX 10 19 -2 -4
BITMAP
0040
01C0
0000
00C0
0340
0240
0440
0CC0
0880
0880
1880
1F80
7FC0
3180
3100
2100
6100
C180
0100
ENDCHAR
STARTCHAR Acircumflex
ENCODING 194
SWIDTH 552 0
DWIDTH 9 0
BBX 11 19 -2 -4
BITMAP
00C0
0160
0000
00C0
0340
0240
0440
0CC0
0880
0880
1880
1F80
7FC0
3180
3100
2100
6100
C180
0100
ENDCHAR
STARTCHAR Atilde
ENCODING 195
SWIDTH 552 0
DWIDTH 9 0
BBX 11 18 -2 -4
BITMAP
00A0
0160
00C0
0340
0240
0440
0CC0
0880
0880
1880
1F80
7FC0
3180
3100
2100
6100
C180
0100
ENDCHAR
STARTCHAR Adieresis
ENCODING 196
SWIDTH 552 0
DWIDTH 9 0
BBX 11 19 -2 -4
BITMAP
0080
01A0
0000
00C0
0340
0240
0440
0CC0
0880
0880
1880
1F80
7FC0
3180
3100
2100
6100
C180
0100
ENDCHAR
STARTCHAR Aring
ENCODING 197
SWIDTH 552 0
DWIDTH 9 0
BBX 10 18 -2 -4
BITMAP
0040
00C0
00C0
0340
0240
0440
0CC0
0880
0880
1880
1F80
7FC0
3180
3100
2100
6100
C180
0100
ENDCHAR
STARTCHAR AE
ENCODING 198
SWIDTH 869 0
DWIDTH 14 0
BBX 16 16 -2 -4
BITMAP
00CE
0371
0261
0463
0CC6
08E0
08E0
18B8
1FC0
7F80
3180
3182
2184
61C8
C1F0
0100
ENDCHAR
STARTCHAR Ccedilla
ENCODING 199
SWIDTH 548 0
DWIDTH 9 0
BBX 9 18 0 -6
BITMAP
0700
1980
1180
3180
6180
6300
4000
C000
C000
C000
C000
C200
C200
6400
3800
2000
1800
3000
ENDCHAR
STARTCHAR Egrave
ENCODING 200
SWIDTH 523 0
DWIDTH 8 0
BBX 9 18 0 -3
BITMAP
0400
0300
0000
0700
1900
3180
6100
6300
6000
2000
1C00
6000
C000
8000
8200
8200
CC00
7800
ENDCHAR
STARTCHAR Eacute
ENCODING 201
SWIDTH 523 0
DWIDTH 8 0
BBX 9 18 0 -3
BITMAP
0100
0600
0000
0700
1900
3180
6100
6300
6000
2000
1C00
6000
C000
8000
8200
8200
CC00
7800
ENDCHAR
STARTCHAR Ecircumflex
ENCODING 202
SWIDTH 523 0
DWIDTH 8 0
BBX 9 18 0 -3
BITMAP
0300
0D80
0000
0700
1900
3180
6100
6300
6000
2000
1C00
6000
C000
8000
8200
8200
CC00
7800
ENDCHAR
STARTCHAR Edieresis
ENCODING 203
SWIDTH 523 0
DWIDTH 8 0
BBX 9 18 0 -3
BITMAP
0400
0580
0000
0700
1900
3180
6100
6300
6000
2000
1C00
6000
C000
8000
8200
8200
CC00
7800
ENDCHAR
STARTCHAR Igrave
ENCODING 204
SWIDTH 537 0
DWIDTH 9 0
BBX 9 18 -1 -3
BITMAP
0300
0180
0000
0100
0680
0480
0D80
0D80
0900
0900
0700
0300
3E80
C200
8600
C400
C800
3000
ENDCHAR
STARTCHAR Iacute
ENCODING 205
SWIDTH 537 0
DWIDTH 9 0
BBX 9 18 -1 -3
BITMAP
0080
0180
0000
0100
0680
0480
0D80
0D80
0900
0900
0700
0300
3E80
C200
8600
C400
C800
3000
ENDCHAR
STARTCHAR Icircumflex
ENCODING 206
SWIDTH 537 0
DWIDTH 9 0
BBX 11 18 -1 -3
BITMAP
00C0
0360
0000
0100
0680
0480
0D80
0D80
0900
0900
0700
0300
3E80
C200
8600
C400
C800
3000
ENDCHAR
STARTCHAR Idieresis
ENCODING 207
SWIDTH 537 0
DWIDTH 9 0
BBX 10 18 -1 -3
BITMAP
0100
0340
0000
0100
0680
0480
0D80
0D80
0900
0900
0700
0300
3E80
C200
8600
C400
C800
3000
ENDCHAR
STARTCHAR Eth
ENCODING 208
SWIDTH 632 0
DWIDTH 10 0
BBX 10 15 0 -3
BITMAP
1C00
3300
4180
1080
3080
30C0
30C0
F880
2180
6180
6100
4300
4600
CC00
7000
ENDCHAR
STARTCHAR Ntilde
ENCODING 209
SWIDTH 541 0
DWIDTH 9 0
BBX 11 17 -1 -3
BITMAP
0240
0580
0860
18E0
18A0
19A0
2BC0
2900
2900
2900
6900
4B00
4A00
4E00
C600
C600
4400
ENDCHAR
STARTCHAR Ograve
ENCODING 210
SWIDTH 567 0
DWIDTH 9 0
BBX 8 18 0 -3
BITMAP
04
03
00
0E
1B
31
21
61
41
41
C1
C3
C3
C2
C2
C4
4C
78
ENDCHAR
STARTCHAR Oacute
ENCODING 211
SWIDTH 567 0
DWIDTH 9 0
BBX 8 18 0 -3
BITMAP
01
06
00
0E
1B
31
21
61
41
41
C1
C3
C3
C2
C2
C4
4C
78
ENDCHAR
STARTCHAR Ocircumflex
ENCODING 212
SWIDTH 567 0
DWIDTH 9 0
BBX 8 18 0 -3
BITMAP
02
0D
00
0E
1B
31
21
61
41
41
C1
C3
C3
C2
C2
C4
4C
78
ENDCHAR
STARTCHAR Otilde
ENCODING 213
SWIDTH 567 0
DWIDTH 9 0
BBX 9 18 0 -3
BITMAP
0480
0B00
0000
0E00
1B00
3100
2100
6100
4100
4100
C100
C300
C300
C200
C200
C400
4C00
7800
ENDCHAR
STARTCHAR Odieresis
ENCODING 214
SWIDTH 567 0
DWIDTH 9 0
BBX 8 18 0 -3
BITMAP
04
0D
00
0E
1B
31
21
61
41
41
C1
C3
C3
C2
C2
C4
4C
78
ENDCHAR
STARTCHAR multiply
ENCODING 215
SWIDTH 281 0
DWIDTH 5 0
BBX 5 5 0 3
BITMAP
D8
50
20
60
B0
ENDCHAR
STARTCHAR Oslash
ENCODING 216
SWIDTH 597 0
DWIDTH 10 0
BBX 10 15 0 -3
BITMAP
0EC0
1D80
1100
2300
2700
6500
4D00
4900
5900
D300
F300
E200
6600
CC00
F800
ENDCHAR
STARTCHAR Ugrave
ENCODING 217
SWIDTH 574 0
DWIDTH 9 0
BBX 10 17 0 -3
BITMAP
0400
0300
0840
3080
3180
3180
2180
6100
6300
4300
4200
C200
C600
C600
C600
CA00
7200
ENDCHAR
STARTCHAR Uacute
ENCODING 218
SWIDTH 574 0
DWIDTH 9 0
BBX 10 17 0 -3
BITMAP
0100
0300
0840
3080
3180
3180
2180
6100
6300
4300
4200
C200
C600
C600
C600
CA00
7200
ENDCHAR
STARTCHAR Ucircumflex
ENCODING 219
SWIDTH 574 0
DWIDTH 9 0
BBX 10 17 0 -3
BITMAP
0300
0580
0840
3080
3180
3180
2180
6100
6300
4300
4200
C200
C600
C600
C600
CA00
7200
ENDCHAR
STARTCHAR Udieresis
ENCODING 220
SWIDTH 574 0
DWIDTH 9 0
BBX 10 17 0 -3
BITMAP
0400
0D80
0840
3080
3180
3180
2180
6100
6300
4300
4200
C200
C600
C600
C600
CA00
7200
ENDCHAR
STARTCHAR Yacute
ENCODING 221
SWIDTH 532 0
DWIDTH 9 0
BBX 9 17 0 -3
BITMAP
0100
0600
1080
3180
2180
6100
6100
4300
4200
4600
4600
4A00
7400
0400
4C00
F800
7000
ENDCHAR
STARTCHAR Thorn
ENCODING 222
SWIDTH 569 0
DWIDTH 9 0
BBX 10 15 -1 -3
BITMAP
0800
1800
1800
1F00
3080
70C0
30C0
2080
2080
2100
6200
7C00
4000
4000
C000
ENDCHAR
STARTCHAR germandbls
ENCODING 223
SWIDTH 495 0
DWIDTH 8 0
BBX 9 19 -2 -8
BITMAP
0200
0500
0980
0900
1B00
1200
1200
3100
E180
3480
3F00
4A00
4800
4800
4800
9800
9000
E000
4000
ENDCHAR
STARTCHAR agrave
ENCODING 224
SWIDTH 435 0
DWIDTH 7 0
BBX 8 10 0 0
BITMAP
30
18
00
10
38
48
C9
99
92
EC
ENDCHAR
STARTCHAR aacute
ENCODING 225
SWIDTH 435 0
DWIDTH 7 0
BBX 8 10 0 0
BITMAP
08
30
00
10
38
48
C9
99
92
EC
ENDCHAR
STARTCHAR acircumflex
ENCODING 226
SWIDTH 435 0
DWIDTH 7 0
BBX 8 9 0 0
BITMAP
18
6C
10
38
48
C9
99
92
EC
ENDCHAR
STARTCHAR atilde
ENCODING 227
SWIDTH 435 0
DWIDTH 7 0
BBX 8 9 0 0
BITMAP
24
5C
10
38
48
C9
99
92
EC
ENDCHAR
STARTCHAR adieresis
ENCODING 228
SWIDTH 435 0
DWIDTH 7 0
BBX 8 9 0 0
BITMAP
10
2C
10
38
48
C9
99
92
EC
ENDCHAR
STARTCHAR aring
ENCODING 229
SWIDTH 435 0
DWIDTH 7 0
BBX 8 9 0 0
BITMAP
10
28
10
38
48
C9
99
92
EC
ENDCHAR
STARTCHAR ae
ENCODING 230
SWIDTH 594 0
DWIDTH 10 0
BBX 11 7 0 0
BITMAP
1300
3D00
4900
CA20
9C40
9880
EF00
ENDCHAR
STARTCHAR ccedilla
ENCODING 231
SWIDTH 363 0
DWIDTH 6 0
BBX 7 11 0 -4
BITMAP
10
68
D0
82
84
88
F0
40
60
30
40
ENDCHAR
STARTCHAR egrave
ENCODING 232
SWIDTH 372 0
DWIDTH 6 0
BBX 7 10 0 0
BITMAP
20
18
00
10
78
50
A2
C2
84
F8
ENDCHAR
STARTCHAR eacute
ENCODING 233
SWIDTH 372 0
DWIDTH 6 0
BBX 7 10 0 0
BITMAP
08
30
00
10
78
50
A2
C2
84
F8
ENDCHAR
STARTCHAR ecircumflex
ENCODING 234
SWIDTH 372 0
DWIDTH 6 0
BBX 7 9 0 0
BITMAP
18
6C
10
78
50
A2
C2
84
F8
ENDCHAR
STARTCHAR edieresis
ENCODING 235
SWIDTH 372 0
DWIDTH 6 0
BBX 7 9 0 0
BITMAP
20
6C
10
78
50
A2
C2
84
F8
ENDCHAR
STARTCHAR igrave
ENCODING 236
SWIDTH 274 0
DWIDTH 4 0
BBX 6 10 0 0
BITMAP
C0
60
00
00
60
40
44
C8
90
60
ENDCHAR
STARTCHAR iacute
ENCODING 237
SWIDTH 274 0
DWIDTH 4 0
BBX 6 10 0 0
BITMAP
08
30
00
00
60
40
44
C8
90
60
ENDCHAR
STARTCHAR icircumflex
ENCODING 238
SWIDTH 274 0
DWIDTH 4 0
BBX 6 9 0 0
BITMAP
30
D8
00
60
40
44
C8
90
60
ENDCHAR
STARTCHAR idieresis
ENCODING 239
SWIDTH 274 0
DWIDTH 4 0
BBX 6 9 0 0
BITMAP
40
D8
00
60
40
44
C8
90
60
ENDCHAR
STARTCHAR eth
ENCODING 240
SWIDTH 393 0
DWIDTH 6 0
BBX 8 11 0 0
BITMAP
10
08
1E
28
08
78
C9
CE
B8
90
F0
ENDCHAR
STARTCHAR ntilde
ENCODING 241
SWIDTH 461 0
DWIDTH 7 0
BBX 9 9 0 0
BITMAP
3200
4C00
0000
7800
6C00
4880
C900
8A00
9C00
ENDCHAR
STARTCHAR ograve
ENCODING 242
SWIDTH 393 0
DWIDTH 6 0
BBX 8 10 0 0
BITMAP
20
18
00
00
70
C9
CE
B8
90
F0
ENDCHAR
STARTCHAR oacute
ENCODING 243
SWIDTH 393 0
DWIDTH 6 0
BBX 8 10 0 0
BITMAP
08
30
00
00
70
C9
CE
B8
90
F0
ENDCHAR
STARTCHAR ocircumflex
ENCODING 244
SWIDTH 393 0
DWIDTH 6 0
BBX 8 9 0 0
BITMAP
30
48
00
70
C9
CE
B8
90
F0
ENDCHAR
STARTCHAR otilde
ENCODING 245
SWIDTH 393 0
DWIDTH 6 0
BBX 8 9 0 0
BITMAP
24
58
00
70
C9
CE
B8
90
F0
ENDCHAR
STARTCHAR odieresis
ENCODING 246
SWIDTH 393 0
DWIDTH 6 0
BBX 8 9 0 0
BITMAP
20
6C
00
70
C9
CE
B8
90
F0
ENDCHAR
STARTCHAR divide
ENCODING 247
SWIDTH 350 0
DWIDTH 6 0
BBX 6 5 0 3
BITMAP
30
04
F8
00
60
ENDCHAR
STARTCHAR oslash
ENCODING 248
SWIDTH 406 0
DWIDTH 7 0
BBX 9 8 -1 -1
BITMAP
0600
3C00
2480
6700
5C00
4800
7800
C000
ENDCHAR
STARTCHAR ugrave
ENCODING 249
SWIDTH 468 0
DWIDTH 8 0
BBX 9 9 0 0
BITMAP
3000
1800
0000
4C00
4C00
C880
8900
9A00
FC00
ENDCHAR
STARTCHAR uacute
ENCODING 250
SWIDTH 468 0
DWIDTH 8 0
BBX 9 9 0 0
BITMAP
0800
1800
0000
4C00
4C00
C880
8900
9A00
FC00
ENDCHAR
STARTCHAR ucircumflex
ENCODING 251
SWIDTH 468 0
DWIDTH 8 0
BBX 9 9 0 0
BITMAP
1800
6C00
0000
4C00
4C00
C880
8900
9A00
FC00
ENDCHAR
STARTCHAR udieresis
ENCODING 252
SWIDTH 468 0
DWIDTH 8 0
BBX 9 9 0 0
BITMAP
3000
2C00
0000
4C00
4C00
C880
8900
9A00
FC00
ENDCHAR
STARTCHAR yacute
ENCODING 253
SWIDTH 406 0
DWIDTH 7 0
BBX 6 16 0 -7
BITMAP
0C
18
00
CC
CC
C8
98
98
F0
10
10
10
30
20
20
20
ENDCHAR
STARTCHAR thorn
ENCODING 254
SWIDTH 451 0
DWIDTH 7 0
BBX 10 18 -2 -7
BITMAP
0C00
0C00
0800
0800
1800
1600
1900
1340
3240
3E80
3F00
2000
6000
4000
4000
4000
C000
4000
ENDCHAR
STARTCHAR ydieresis
ENCODING 255
SWIDTH 406 0
DWIDTH 7 0
BBX 6 16 0 -7
BITMAP
20
6C
00
CC
CC
C8
98
98
F0
10
10
10
30
20
20
20
ENDCHAR
STARTCHAR dotlessi
ENCODING 305
SWIDTH 274 0
DWIDTH 4 0
BBX 6 6 0 0
BITMAP
60
40
44
C8
90
60
ENDCHAR
STARTCHAR Lslash
ENCODING 321
SWIDTH 492 0
DWIDTH 8 0
BBX 11 15 -2 -3
BITMAP
00C0
01E0
0140
0340
0280
2700
1E00
0600
0F00
1C00
0C00
0800
7800
DC80
6780
ENDCHAR
STARTCHAR lslash
ENCODING 322
SWIDTH 218 0
DWIDTH 4 0
BBX 5 11 -1 0
BITMAP
18
10
10
30
38
F0
A0
20
60
40
40
ENDCHAR
STARTCHAR OE
ENCODING 338
SWIDTH 918 0
DWIDTH 15 0
BBX 15 15 0 -3
BITMAP
0E1C
1B62
31C2
21C6
618C
4180
41C0
C170
C380
C300
C300
C304
C708
4F90
78E0
ENDCHAR
STARTCHAR oe
ENCODING 339
SWIDTH 583 0
DWIDTH 9 0
BBX 11 7 0 0
BITMAP
0300
7500
C900
CA20
BC40
9880
FF00
ENDCHAR
STARTCHAR Scaron
ENCODING 352
SWIDTH 474 0
DWIDTH 8 0
BBX 10 18 -1 -3
BITMAP
02C0
0100
0000
0700
1980
1080
3180
3100
3000
1800
0C00
0400
0600
0600
C600
C400
4C00
7800
ENDCHAR
STARTCHAR scaron
ENCODING 353
SWIDTH 351 0
DWIDTH 6 0
BBX 6 11 0 -1
BITMAP
6C
30
00
30
60
60
90
10
50
F0
40
ENDCHAR
STARTCHAR Ydieresis
ENCODING 376
SWIDTH 532 0
DWIDTH 9 0
BBX 9 17 0 -3
BITMAP
0400
0D00
1080
3180
2180
6100
6100
4300
4200
4600
4600
4A00
7400
0400
4C00
F800
7000
ENDCHAR
STARTCHAR Zcaron
ENCODING 381
SWIDTH 455 0
DWIDTH 7 0
BBX 10 18 -1 -3
BITMAP
06C0
0300
0000
0F00
3F80
0180
0100
0300
0600
0C00
0800
1800
3000
6000
4000
C000
FE00
CC00
ENDCHAR
STARTCHAR zcaron
ENCODING 382
SWIDTH 349 0
DWIDTH 6 0
BBX 9 17 -2 -7
BITMAP
1B00
0C00
0000
0000
3E00
0400
0C00
0880
1D00
2600
1C00
2C00
4800
8800
9000
B000
E000
ENDCHAR
STARTCHAR circumflex
ENCODING 710
SWIDTH 567 0
DWIDTH 9 0
BBX 5 2 3 9
BITMAP
30
D8
ENDCHAR
STARTCHAR caron
ENCODING 711
SWIDTH 567 0
DWIDTH 9 0
BBX 5 2 3 9
BITMAP
D8
60
ENDCHAR
STARTCHAR breve
ENCODING 728
SWIDTH 567 0
DWIDTH 9 0
BBX 5 2 3 9
BITMAP
88
70
ENDCHAR
STARTCHAR dotaccent
ENCODING 729
SWIDTH 567 0
DWIDTH 9 0
BBX 1 2 5 9
BITMAP
80
80
ENDCHAR
STARTCHAR ring
ENCODING 730
SWIDTH 567 0
DWIDTH 9 0
BBX 3 2 4 9
BITMAP
40
E0
ENDCHAR
STARTCHAR ogonek
ENCODING 731
SWIDTH 567 0
DWIDTH 9 0
BBX 4 3 4 -2
BITMAP
80
90
E0
ENDCHAR
STARTCHAR tilde
ENCODING 732
SWIDTH 567 0
DWIDTH 9 0
BBX 5 2 3 9
BITMAP
48
B8
ENDCHAR
STARTCHAR hungarumlaut
ENCODING 733
SWIDTH 567 0
DWIDTH 9 0
BBX 5 2 3 9
BITMAP
68
F8
ENDCHAR
STARTCHAR endash
ENCODING 8211
SWIDTH 353 0
DWIDTH 6 0
BBX 5 2 0 4
BITMAP
78
C0
ENDCHAR
STARTCHAR emdash
ENCODING 8212
SWIDTH 508 0
DWIDTH 8 0
BBX 8 2 0 4
BITMAP
FE
FF
ENDCHAR
STARTCHAR quoteleft
ENCODING 8216
SWIDTH 155 0
DWIDTH 2 0
BBX 2 4 1 7
BITMAP
40
80
C0
80
ENDCHAR
STARTCHAR quoteright
ENCODING 8217
SWIDTH 154 0
DWIDTH 2 0
BBX 2 4 1 7
BITMAP
C0
C0
40
80
ENDCHAR
STARTCHAR quotesinglbase
ENCODING 8218
SWIDTH 188 0
DWIDTH 3 0
BBX 2 4 -1 -2
BITMAP
40
C0
40
80
ENDCHAR
STARTCHAR quotedblleft
ENCODING 8220
SWIDTH 289 0
DWIDTH 5 0
BBX 4 4 1 7
BITMAP
50
A0
F0
A0
ENDCHAR
STARTCHAR quotedblright
ENCODING 8221
SWIDTH 288 0
DWIDTH 5 0
BBX 4 4 1 7
BITMAP
F0
F0
90
A0
ENDCHAR
STARTCHAR quotedblbase
ENCODING 8222
SWIDTH 323 0
DWIDTH 5 0
BBX 4 4 -1 -2
BITMAP
50
D0
50
90
ENDCHAR
STARTCHAR bullet
ENCODING 8226
SWIDTH 180 0
DWIDTH 3 0
BBX 3 3 0 3
BITMAP
E0
C0
C0
ENDCHAR
STARTCHAR ellipsis
ENCODING 8230
SWIDTH 614 0
DWIDTH 10 0
BBX 8 1 0 0
BITMAP
DB
ENDCHAR
STARTCHAR perthousand
ENCODING 8240
SWIDTH 851 0
DWIDTH 14 0
BBX 13 12 0 0
BITMAP
1080
6900
4900
4A00
5400
6C00
0800
1738
34C8
2948
4948
C770
ENDCHAR
STARTCHAR guilsinglleft
ENCODING 8249
SWIDTH 202 0
DWIDTH 3 0
BBX 4 6 -1 0
BITMAP
10
20
40
C0
40
20
ENDCHAR
STARTCHAR guilsinglright
ENCODING 8250
SWIDTH 202 0
DWIDTH 3 0
BBX 4 6 -1 0
BITMAP
40
20
30
20
40
80
ENDCHAR
STARTCHAR fraction
ENCODING 8260
SWIDTH 600 0
DWIDTH 10 0
BBX 10 12 0 0
BITMAP
0040
0080
0100
0200
0200
0400
0800
0800
1000
2000
6000
C000
ENDCHAR
STARTCHAR Euro
ENCODING 8364
SWIDTH 334 0
DWIDTH 5 0
BBX 7 9 -1 1
BITMAP
0E
12
20
7C
38
E0
40
24
38
ENDCHAR
STARTCHAR minus
ENCODING 8722
SWIDTH 353 0
DWIDTH 6 0
BBX 5 2 0 4
BITMAP
78
C0
ENDCHAR
STARTCHAR fi
ENCODING 64257
SWIDTH 549 0
DWIDTH 9 0
BBX 12 19 -2 -8
BITMAP
0C00
0C40
0C80
0800
0800
0980
1780
1910
3120
3160
2980
2C00
2400
4400
4C00
4800
5800
F000
4000
ENDCHAR
STARTCHAR fl
ENCODING 64258
SWIDTH 516 0
DWIDTH 8 0
BBX 10 19 -2 -8
BITMAP
0C40
0C40
0CC0
08C0
0880
0880
1780
1980
3100
3100
2900
2C00
2400
4400
4C00
4800
5800
F000
4000
ENDCHAR
STARTCHAR .notdef
ENCODING -1
SWIDTH 280 0
DWIDTH 4 0
BBX 1 1 0 0
BITMAP
00
ENDCHAR
ENDFONT
